REM DIRINDEX 1\2,1\3,1\4,1\5,1\6
REM DIRNAME cjc129,folder01,folder02,folder03,folder04,folder05
TITLE ""
FILE "DISC3Track21.mp3" MP3
  TRACK 01 AUDIO
    TITLE "0:"
    INDEX 01 00:00:00
  TRACK 02 AUDIO
    TITLE "3:cjc129_2615"
    INDEX 01 00:00:05
  TRACK 03 AUDIO
    TITLE "0:"
    INDEX 01 00:01:54
  TRACK 04 AUDIO
    TITLE "5:cjc129_2616"
    INDEX 01 00:02:10
  TRACK 05 AUDIO
    TITLE "0:"
    INDEX 01 00:04:60
  TRACK 06 AUDIO
    TITLE "4:cjc129_2617"
    INDEX 01 00:05:52
  TRACK 07 AUDIO
    TITLE "0:"
    INDEX 01 00:07:25
  TRACK 08 AUDIO
    TITLE "6:cjc129_2618"
    INDEX 01 00:07:56
  TRACK 09 AUDIO
    TITLE "0:"
    INDEX 01 00:12:22
  TRACK 10 AUDIO
    TITLE "3:cjc129_2619"
    INDEX 01 00:13:73
  TRACK 11 AUDIO
    TITLE "0:"
    INDEX 01 00:15:42
  TRACK 12 AUDIO
    TITLE "5:cjc129_2620"
    INDEX 01 00:16:02
  TRACK 13 AUDIO
    TITLE "0:"
    INDEX 01 00:20:67
  TRACK 14 AUDIO
    TITLE "4:cjc129_2621"
    INDEX 01 00:21:57
  TRACK 15 AUDIO
    TITLE "0:"
    INDEX 01 00:23:28
  TRACK 16 AUDIO
    TITLE "6:cjc129_2622"
    INDEX 01 00:23:61
  TRACK 17 AUDIO
    TITLE "0:"
    INDEX 01 00:27:63
  TRACK 18 AUDIO
    TITLE "3:cjc129_2623"
    INDEX 01 00:29:36
  TRACK 19 AUDIO
    TITLE "0:"
    INDEX 01 00:31:06
  TRACK 20 AUDIO
    TITLE "5:cjc129_2624"
    INDEX 01 00:31:43
  TRACK 21 AUDIO
    TITLE "0:"
    INDEX 01 00:36:03
  TRACK 22 AUDIO
    TITLE "4:cjc129_2625"
    INDEX 01 00:36:68
  TRACK 23 AUDIO
    TITLE "0:"
    INDEX 01 00:38:39
  TRACK 24 AUDIO
    TITLE "6:cjc129_2626"
    INDEX 01 00:39:02
  TRACK 25 AUDIO
    TITLE "0:"
    INDEX 01 00:43:70
  TRACK 26 AUDIO
    TITLE "3:cjc129_2627"
    INDEX 01 00:45:43
  TRACK 27 AUDIO
    TITLE "0:"
    INDEX 01 00:47:21
  TRACK 28 AUDIO
    TITLE "5:cjc129_2628"
    INDEX 01 00:47:52
  TRACK 29 AUDIO
    TITLE "0:"
    INDEX 01 00:49:39
  TRACK 30 AUDIO
    TITLE "4:cjc129_2629"
    INDEX 01 00:50:29
  TRACK 31 AUDIO
    TITLE "0:"
    INDEX 01 00:52:06
  TRACK 32 AUDIO
    TITLE "6:cjc129_2630"
    INDEX 01 00:52:39
  TRACK 33 AUDIO
    TITLE "0:"
    INDEX 01 00:56:22
  TRACK 34 AUDIO
    TITLE "3:cjc129_2631"
    INDEX 01 00:57:72
  TRACK 35 AUDIO
    TITLE "0:"
    INDEX 01 00:59:34
  TRACK 36 AUDIO
    TITLE "5:cjc129_2632"
    INDEX 01 00:59:63
  TRACK 37 AUDIO
    TITLE "0:"
    INDEX 01 01:03:73
  TRACK 38 AUDIO
    TITLE "4:cjc129_2633"
    INDEX 01 01:04:62
  TRACK 39 AUDIO
    TITLE "0:"
    INDEX 01 01:06:24
  TRACK 40 AUDIO
    TITLE "6:cjc129_2634"
    INDEX 01 01:06:55
  TRACK 41 AUDIO
    TITLE "0:"
    INDEX 01 01:11:45
  TRACK 42 AUDIO
    TITLE "3:cjc129_2635"
    INDEX 01 01:13:20
  TRACK 43 AUDIO
    TITLE "0:"
    INDEX 01 01:14:55
  TRACK 44 AUDIO
    TITLE "5:cjc129_2636"
    INDEX 01 01:15:11
  TRACK 45 AUDIO
    TITLE "0:"
    INDEX 01 01:17:10
  TRACK 46 AUDIO
    TITLE "4:cjc129_2637"
    INDEX 01 01:18:02
  TRACK 47 AUDIO
    TITLE "0:"
    INDEX 01 01:19:36
  TRACK 48 AUDIO
    TITLE "6:cjc129_2638"
    INDEX 01 01:19:68
  TRACK 49 AUDIO
    TITLE "0:"
    INDEX 01 01:24:61
  TRACK 50 AUDIO
    TITLE "3:cjc129_2639"
    INDEX 01 01:26:34
  TRACK 51 AUDIO
    TITLE "0:"
    INDEX 01 01:28:10
  TRACK 52 AUDIO
    TITLE "5:cjc129_2640"
    INDEX 01 01:28:41
  TRACK 53 AUDIO
    TITLE "0:"
    INDEX 01 01:31:38
  TRACK 54 AUDIO
    TITLE "4:cjc129_2641"
    INDEX 01 01:32:27
  TRACK 55 AUDIO
    TITLE "0:"
    INDEX 01 01:34:03
  TRACK 56 AUDIO
    TITLE "6:cjc129_2642"
    INDEX 01 01:34:34
  TRACK 57 AUDIO
    TITLE "0:"
    INDEX 01 01:40:09
  TRACK 58 AUDIO
    TITLE "3:cjc129_2643"
    INDEX 01 01:41:57
  TRACK 59 AUDIO
    TITLE "0:"
    INDEX 01 01:43:49
  TRACK 60 AUDIO
    TITLE "5:cjc129_2644"
    INDEX 01 01:44:05
  TRACK 61 AUDIO
    TITLE "0:"
    INDEX 01 01:48:42
  TRACK 62 AUDIO
    TITLE "4:cjc129_2645"
    INDEX 01 01:49:33
  TRACK 63 AUDIO
    TITLE "0:"
    INDEX 01 01:51:25
  TRACK 64 AUDIO
    TITLE "6:cjc129_2646"
    INDEX 01 01:51:56
  TRACK 65 AUDIO
    TITLE "0:"
    INDEX 01 01:56:04
